<?xml version="1.0" standalone="no"?><!DOCTYPE svg PUBLIC "-//W3C//DTD SVG 1.1//EN" "http://www.w3.org/Graphics/SVG/1.1/DTD/svg11.dtd"><svg t="1569676976251" class="icon" viewBox="0 0 1024 1024" version="1.1" xmlns="http://www.w3.org/2000/svg" p-id="2332" xmlns:xlink="http://www.w3.org/1999/xlink" width="128" height="128"><defs><style type="text/css"></style></defs><path d="M955.261 575.322H828.618c-34.955 0-63.322-28.37-63.322-63.322s28.37-63.322 63.322-63.322h126.643c34.955 0 63.322 28.37 63.322 63.322s-28.37 63.322-63.322 63.322zM780.616 332.925c-24.696 24.696-64.842 24.696-89.538 0s-24.696-64.842 0-89.538l89.538-89.538c24.696-24.696 64.842-24.696 89.538 0s24.696 64.842 0 89.538l-89.538 89.538zM512 1018.582c-34.955 0-63.322-28.37-63.322-63.322V828.617c0-34.955 28.37-63.322 63.322-63.322s63.322 28.37 63.322 63.322V955.26c0 34.955-28.37 63.322-63.322 63.322z m0-759.875c-34.955 0-63.322-28.37-63.322-63.322V68.742c0-34.955 28.37-63.322 63.322-63.322s63.322 28.37 63.322 63.322v126.643c0 34.955-28.37 63.322-63.322 63.322z m-268.616 611.45c-24.696 24.696-64.842 24.696-89.538 0s-24.696-64.842 0-89.538l89.538-89.538c24.696-24.696 64.842-24.696 89.538 0s24.696 64.842 0 89.538l-89.538 89.538z m0-537.232l-89.538-89.538c-24.696-24.696-24.696-64.842 0-89.538s64.842-24.696 89.538 0l89.538 89.538c24.696 24.696 24.696 64.842 0 89.538-24.822 24.696-64.842 24.696-89.538 0zM258.707 512c0 34.955-28.37 63.322-63.322 63.322H68.742c-34.955 0-63.322-28.37-63.322-63.322s28.37-63.322 63.322-63.322h126.643c34.955 0 63.322 28.37 63.322 63.322z m521.909 179.075l89.538 89.538c24.696 24.696 24.696 64.842 0 89.538s-64.842 24.696-89.538 0l-89.538-89.538c-24.696-24.696-24.696-64.842 0-89.538 24.822-24.696 64.842-24.696 89.538 0z m0 0z" p-id="2333" fill="#1296db"></path></svg>